<svg xmlns="http://www.w3.org/2000/svg" xmlns:xlink="http://www.w3.org/1999/xlink" width="1920" zoomAndPan="magnify" viewBox="0 0 1440 809.999993" height="1080" preserveAspectRatio="xMidYMid meet" version="1.0"><defs><clipPath id="550d88b348"><path d="M 343 245 L 1097 245 L 1097 566.632812 L 343 566.632812 Z M 343 245 " clip-rule="nonzero"/></clipPath><clipPath id="8db0f39b41"><path d="M 343 243.382812 L 1097 243.382812 L 1097 566.632812 L 343 566.632812 Z M 343 243.382812 " clip-rule="nonzero"/></clipPath><clipPath id="3cd002feac"><path d="M 342 243.382812 L 1097 243.382812 L 1097 566.632812 L 342 566.632812 Z M 342 243.382812 " clip-rule="nonzero"/></clipPath></defs><g clip-path="url(#550d88b348)"><path fill="#0d1d44" d="M 1095.695312 308.628906 L 1076.226562 308.628906 L 1076.226562 288.921875 L 1075.9375 288.921875 L 1075.9375 288.84375 L 1054.308594 288.84375 L 1054.308594 267.019531 L 1032.402344 267.019531 L 1032.402344 245.097656 L 1032.117188 245.097656 L 1032.117188 245.019531 L 406.757812 245.019531 L 406.757812 266.9375 L 387.050781 266.9375 L 387.050781 288.183594 L 386.539062 288.183594 L 386.539062 288.84375 L 365.101562 288.84375 L 365.101562 308.546875 L 343.164062 308.546875 L 343.164062 503.53125 L 365.101562 503.53125 L 365.101562 525.433594 L 365.355469 525.433594 L 365.355469 525.515625 L 387.003906 525.515625 L 387.003906 545.15625 L 406.792969 545.15625 L 406.792969 566.996094 L 1032.402344 566.996094 L 1032.402344 545.316406 L 1032.164062 545.316406 L 1054.355469 545.316406 L 1054.355469 525.59375 L 1076.273438 525.59375 L 1076.273438 503.628906 L 1096.03125 503.628906 L 1096.03125 308.628906 Z M 1053.617188 309.605469 L 1053.617188 288.921875 L 1054.484375 288.921875 L 1054.484375 309.605469 Z M 365.355469 503.019531 L 386.539062 503.019531 L 386.539062 503.53125 L 365.355469 503.53125 Z M 1042.023438 495.609375 L 1073.742188 495.609375 L 1073.742188 496.300781 L 1042.648438 496.300781 L 1042.648438 523.253906 L 1042.023438 523.253906 Z M 1042.023438 495.609375 " fill-opacity="1" fill-rule="nonzero"/></g><g clip-path="url(#8db0f39b41)"><path fill="#f2cd3a" d="M 1077.300781 307.652344 L 1077.300781 288.761719 L 1077.046875 288.761719 L 1077.046875 287.894531 L 1055.09375 287.894531 L 1055.09375 288.761719 L 1054.402344 288.761719 L 1054.402344 287.894531 L 1055.09375 287.894531 L 1055.09375 265.910156 L 1033.125 265.910156 L 1033.125 266.3125 L 1032.871094 266.3125 L 1032.871094 265.910156 L 1033.125 265.910156 L 1033.125 243.945312 L 406.917969 243.945312 L 406.917969 265.910156 L 387.148438 265.910156 L 387.148438 287.222656 L 386.859375 287.222656 L 386.859375 287.140625 L 386.347656 287.140625 L 386.347656 287.816406 L 386.636719 287.816406 L 386.636719 287.894531 L 365.179688 287.894531 L 365.179688 307.652344 L 343.195312 307.652344 L 343.195312 503.195312 L 365.179688 503.195312 L 365.179688 502.617188 L 365.355469 502.617188 L 365.355469 503.195312 L 365.179688 503.195312 L 365.179688 525.179688 L 387.148438 525.179688 L 387.148438 544.964844 L 406.917969 544.964844 L 406.917969 566.933594 L 1033.125 566.933594 L 1033.125 545.316406 L 1045.230469 545.316406 L 1045.230469 544.964844 L 1055.09375 544.964844 L 1055.09375 525.179688 L 1077.046875 525.179688 L 1077.046875 503.195312 L 1096.832031 503.195312 L 1096.832031 307.652344 Z M 1077.300781 307.652344 " fill-opacity="1" fill-rule="nonzero"/></g><path fill="#ffffff" d="M 494.050781 459.46875 L 494.050781 481.003906 L 515.585938 481.003906 L 515.585938 416.382812 L 494.050781 416.382812 Z M 494.050781 459.46875 " fill-opacity="1" fill-rule="nonzero"/><path fill="#ffffff" d="M 601.757812 308.675781 L 537.136719 308.675781 L 537.136719 330.210938 L 580.222656 330.210938 L 580.222656 502.539062 L 601.757812 502.539062 L 601.757812 330.210938 L 644.859375 330.210938 L 644.859375 308.675781 Z M 601.757812 308.675781 " fill-opacity="1" fill-rule="nonzero"/><path fill="#ffffff" d="M 472.519531 308.675781 L 429.433594 308.675781 L 429.433594 330.210938 L 515.585938 330.210938 L 515.585938 308.675781 Z M 472.519531 308.675781 " fill-opacity="1" fill-rule="nonzero"/><path fill="#ffffff" d="M 450.96875 481.003906 L 407.882812 481.003906 L 407.882812 502.539062 L 494.050781 502.539062 L 494.050781 481.003906 Z M 450.96875 481.003906 " fill-opacity="1" fill-rule="nonzero"/><path fill="#ffffff" d="M 450.96875 416.382812 L 494.050781 416.382812 L 494.050781 394.832031 L 429.433594 394.832031 L 429.433594 416.382812 Z M 450.96875 416.382812 " fill-opacity="1" fill-rule="nonzero"/><path fill="#ffffff" d="M 407.882812 351.761719 L 407.882812 394.832031 L 429.433594 394.832031 L 429.433594 330.210938 L 407.882812 330.210938 Z M 407.882812 351.761719 " fill-opacity="1" fill-rule="nonzero"/><path fill="#ffffff" d="M 881.789062 351.761719 L 881.789062 394.832031 L 903.324219 394.832031 L 903.324219 330.210938 L 881.789062 330.210938 Z M 881.789062 351.761719 " fill-opacity="1" fill-rule="nonzero"/><path fill="#ffffff" d="M 838.6875 394.832031 L 817.167969 394.832031 L 817.167969 330.210938 L 881.789062 330.210938 L 881.789062 308.675781 L 795.617188 308.675781 L 795.617188 502.539062 L 817.167969 502.539062 L 817.167969 416.382812 L 881.789062 416.382812 L 881.789062 394.832031 Z M 838.6875 394.832031 " fill-opacity="1" fill-rule="nonzero"/><path fill="#ffffff" d="M 1011.03125 308.675781 L 924.875 308.675781 L 924.875 330.210938 L 967.976562 330.210938 L 967.976562 502.539062 L 989.496094 502.539062 L 989.496094 330.210938 L 1032.582031 330.210938 L 1032.582031 308.675781 Z M 1011.03125 308.675781 " fill-opacity="1" fill-rule="nonzero"/><path fill="#ffffff" d="M 752.550781 351.761719 L 752.550781 394.832031 L 687.929688 394.832031 L 687.929688 330.210938 L 666.378906 330.210938 L 666.378906 502.539062 L 687.929688 502.539062 L 687.929688 416.382812 L 752.550781 416.382812 L 752.550781 502.539062 L 774.101562 502.539062 L 774.101562 330.210938 L 752.550781 330.210938 Z M 752.550781 351.761719 " fill-opacity="1" fill-rule="nonzero"/><path fill="#ffffff" d="M 881.789062 459.46875 L 881.789062 502.539062 L 903.324219 502.539062 L 903.324219 416.382812 L 881.789062 416.382812 Z M 881.789062 459.46875 " fill-opacity="1" fill-rule="nonzero"/><path fill="#ffffff" d="M 731 330.210938 L 752.550781 330.210938 L 752.550781 308.675781 L 687.929688 308.675781 L 687.929688 330.210938 Z M 731 330.210938 " fill-opacity="1" fill-rule="nonzero"/><path fill="#0d1d44" d="M 752.550781 481.003906 L 752.550781 416.382812 L 731 416.382812 L 731 502.539062 L 752.550781 502.539062 Z M 752.550781 481.003906 " fill-opacity="1" fill-rule="nonzero"/><path fill="#0d1d44" d="M 666.378906 308.675781 L 687.929688 308.675781 L 687.929688 330.195312 L 666.378906 330.195312 Z M 666.378906 308.675781 " fill-opacity="1" fill-rule="nonzero"/><path fill="#0d1d44" d="M 752.550781 373.296875 L 752.550781 330.210938 L 731 330.210938 L 731 394.832031 L 752.550781 394.832031 Z M 752.550781 373.296875 " fill-opacity="1" fill-rule="nonzero"/><path fill="#0d1d44" d="M 666.378906 481.003906 L 666.378906 330.210938 L 644.859375 330.210938 L 644.859375 502.539062 L 666.378906 502.539062 Z M 666.378906 481.003906 " fill-opacity="1" fill-rule="nonzero"/><path fill="#0d1d44" d="M 903.308594 308.675781 L 924.859375 308.675781 L 924.859375 330.195312 L 903.308594 330.195312 Z M 903.308594 308.675781 " fill-opacity="1" fill-rule="nonzero"/><path fill="#0d1d44" d="M 881.789062 373.296875 L 881.789062 330.210938 L 860.253906 330.210938 L 860.253906 394.832031 L 881.789062 394.832031 Z M 881.789062 373.296875 " fill-opacity="1" fill-rule="nonzero"/><path fill="#0d1d44" d="M 795.617188 481.003906 L 795.617188 308.675781 L 774.101562 308.675781 L 774.101562 502.539062 L 795.617188 502.539062 Z M 795.617188 481.003906 " fill-opacity="1" fill-rule="nonzero"/><path fill="#0d1d44" d="M 967.976562 481.003906 L 967.976562 330.210938 L 946.410156 330.210938 L 946.410156 502.539062 L 967.976562 502.539062 Z M 967.976562 481.003906 " fill-opacity="1" fill-rule="nonzero"/><path fill="#0d1d44" d="M 580.222656 481.003906 L 580.222656 330.210938 L 558.671875 330.210938 L 558.671875 502.539062 L 580.222656 502.539062 Z M 580.222656 481.003906 " fill-opacity="1" fill-rule="nonzero"/><path fill="#0d1d44" d="M 881.789062 481.003906 L 881.789062 416.382812 L 860.253906 416.382812 L 860.253906 502.539062 L 881.789062 502.539062 Z M 881.789062 481.003906 " fill-opacity="1" fill-rule="nonzero"/><path fill="#0d1d44" d="M 407.867188 394.832031 L 429.417969 394.832031 L 429.417969 416.382812 L 407.867188 416.382812 Z M 407.867188 394.832031 " fill-opacity="1" fill-rule="nonzero"/><path fill="#0d1d44" d="M 989.496094 524.089844 L 408.8125 524.089844 L 408.8125 544.886719 L 1032.582031 544.886719 L 1032.582031 524.089844 Z M 989.496094 524.089844 " fill-opacity="1" fill-rule="nonzero"/><path fill="#0d1d44" d="M 1032.582031 524.089844 L 1032.820312 524.089844 L 1032.820312 522.902344 L 1054.113281 522.902344 L 1054.113281 502.539062 L 1032.582031 502.539062 Z M 1032.582031 524.089844 " fill-opacity="1" fill-rule="nonzero"/><path fill="#0d1d44" d="M 1054.804688 309.765625 L 1054.804688 308.675781 L 1054.113281 308.675781 L 1054.113281 502.539062 L 1074.574219 502.539062 L 1074.574219 309.765625 Z M 1054.804688 309.765625 " fill-opacity="1" fill-rule="nonzero"/><path fill="#0d1d44" d="M 386.347656 481.003906 L 407.867188 481.003906 L 407.867188 502.539062 L 386.347656 502.539062 Z M 386.347656 481.003906 " fill-opacity="1" fill-rule="nonzero"/><path fill="#0d1d44" d="M 494.050781 459.46875 L 494.050781 416.382812 L 472.519531 416.382812 L 472.519531 481.003906 L 494.050781 481.003906 Z M 494.050781 459.46875 " fill-opacity="1" fill-rule="nonzero"/><path fill="#0d1d44" d="M 515.585938 308.675781 L 537.121094 308.675781 L 537.121094 330.195312 L 515.585938 330.195312 Z M 515.585938 308.675781 " fill-opacity="1" fill-rule="nonzero"/><path fill="#0d1d44" d="M 407.867188 308.675781 L 429.417969 308.675781 L 429.417969 330.195312 L 407.867188 330.195312 Z M 407.867188 308.675781 " fill-opacity="1" fill-rule="nonzero"/><path fill="#0d1d44" d="M 407.882812 351.761719 L 407.882812 330.210938 L 386.347656 330.210938 L 386.347656 394.832031 L 407.882812 394.832031 Z M 407.882812 351.761719 " fill-opacity="1" fill-rule="nonzero"/><path fill="#dce7e7" d="M 364.890625 329.554688 L 364.890625 330.210938 L 386.347656 330.210938 L 386.347656 309.765625 L 364.890625 309.765625 Z M 364.890625 329.554688 " fill-opacity="1" fill-rule="nonzero"/><path fill="#dce7e7" d="M 1032.820312 287.816406 L 1032.820312 287.140625 L 1032.582031 287.140625 L 1032.582031 308.675781 L 1054.113281 308.675781 L 1054.113281 287.816406 Z M 1032.820312 287.816406 " fill-opacity="1" fill-rule="nonzero"/><path fill="#dce7e7" d="M 1011.03125 265.847656 L 408.8125 265.847656 L 408.8125 287.816406 L 386.859375 287.816406 L 386.859375 308.675781 L 429.433594 308.675781 L 429.433594 287.140625 L 1032.582031 287.140625 L 1032.582031 265.847656 Z M 1011.03125 265.847656 " fill-opacity="1" fill-rule="nonzero"/><g clip-path="url(#3cd002feac)"><path fill="#000000" d="M 1077.15625 307.1875 L 1077.15625 287.414062 L 1055.207031 287.414062 L 1055.207031 265.429688 L 1033.222656 265.429688 L 1033.222656 243.464844 L 406.261719 243.464844 L 406.261719 265.429688 L 386.460938 265.429688 L 386.460938 287.414062 L 364.492188 287.414062 L 364.492188 307.1875 L 342.507812 307.1875 L 342.507812 503.53125 L 364.492188 503.53125 L 364.492188 525.5 L 386.460938 525.5 L 386.460938 545.316406 L 406.230469 545.316406 L 406.230469 567.285156 L 1033.191406 567.285156 L 1033.191406 545.316406 L 1055.171875 545.316406 L 1055.171875 525.5 L 1077.125 525.5 L 1077.125 503.53125 L 1096.910156 503.53125 L 1096.910156 307.1875 Z M 1074.09375 329.554688 L 1074.09375 502.730469 L 1054.402344 502.730469 L 1054.402344 522.5 L 1032.402344 522.5 L 1032.402344 544.484375 L 409.210938 544.484375 L 409.210938 522.5 L 387.261719 522.5 L 387.261719 502.730469 L 365.355469 502.730469 L 365.355469 310.167969 L 387.261719 310.167969 L 387.261719 288.214844 L 409.210938 288.214844 L 409.210938 266.3125 L 1032.402344 266.3125 L 1032.402344 288.214844 L 1054.386719 288.214844 L 1054.386719 310.167969 L 1074.09375 310.167969 Z M 1074.09375 329.554688 " fill-opacity="1" fill-rule="nonzero"/></g></svg>